<svg width="148" height="40" viewBox="0 0 148 40" fill="none" xmlns="http://www.w3.org/2000/svg">
<path d="M66.176 32C65.3653 32 64.6187 31.7973 63.936 31.392C63.2747 30.9867 62.7413 30.4533 62.336 29.792C61.9307 29.1093 61.728 28.3627 61.728 27.552V13.408C61.728 12.5973 61.9307 11.8613 62.336 11.2C62.7413 10.5173 63.2747 9.97333 63.936 9.568C64.6187 9.16267 65.3653 8.96 66.176 8.96H80.32C81.1307 8.96 81.8667 9.16267 82.528 9.568C83.2107 9.97333 83.7547 10.5173 84.16 11.2C84.5653 11.8613 84.768 12.5973 84.768 13.408V27.552C84.768 28.3627 84.5653 29.1093 84.16 29.792C83.7547 30.4533 83.2107 30.9867 82.528 31.392C81.8667 31.7973 81.1307 32 80.32 32H66.176ZM66.336 27.744H80.096C80.2027 27.744 80.2987 27.712 80.384 27.648C80.4693 27.5627 80.512 27.4667 80.512 27.36V13.6C80.512 13.4933 80.4693 13.408 80.384 13.344C80.2987 13.2587 80.2027 13.216 80.096 13.216H66.336C66.2293 13.216 66.1333 13.2587 66.048 13.344C65.984 13.408 65.952 13.4933 65.952 13.6V27.36C65.952 27.4667 65.984 27.5627 66.048 27.648C66.1333 27.712 66.2293 27.744 66.336 27.744ZM88.4499 32V17.856C88.4499 17.0453 88.6526 16.3093 89.0579 15.648C89.4632 14.9867 89.9966 14.4533 90.6579 14.048C91.3406 13.6427 92.0766 13.44 92.8659 13.44H103.17V17.632H93.0259C92.9192 17.632 92.8232 17.6747 92.7379 17.76C92.6739 17.824 92.6419 17.9093 92.6419 18.016V32H88.4499ZM105.737 32V7.36H109.929V13.44H120.169C120.98 13.44 121.716 13.6427 122.377 14.048C123.06 14.4533 123.593 14.9867 123.977 15.648C124.383 16.3093 124.585 17.0453 124.585 17.856V27.584C124.585 28.3947 124.383 29.1307 123.977 29.792C123.593 30.4533 123.06 30.9867 122.377 31.392C121.716 31.7973 120.98 32 120.169 32H105.737ZM110.313 27.808H120.009C120.116 27.808 120.201 27.776 120.265 27.712C120.351 27.6267 120.393 27.5307 120.393 27.424V18.016C120.393 17.9093 120.351 17.824 120.265 17.76C120.201 17.6747 120.116 17.632 120.009 17.632H110.313C110.207 17.632 110.111 17.6747 110.025 17.76C109.961 17.824 109.929 17.9093 109.929 18.016V27.424C109.929 27.5307 109.961 27.6267 110.025 27.712C110.111 27.776 110.207 27.808 110.313 27.808ZM127.303 32V13.44H131.495V32H127.303ZM127.303 11.584V7.36H131.495V11.584H127.303ZM139.568 32C138.757 32 138.021 31.7973 137.36 31.392C136.699 30.9867 136.165 30.4533 135.76 29.792C135.355 29.1307 135.152 28.3947 135.152 27.584V7.744H139.344V13.44H146.576V17.632H139.344V27.424C139.344 27.5307 139.376 27.6267 139.44 27.712C139.525 27.776 139.621 27.808 139.728 27.808H146.576V32H139.568Z" fill="white"/>
<mask id="mask0_444_1214" style="mask-type:alpha" maskUnits="userSpaceOnUse" x="0" y="0" width="40" height="40">
<rect width="40" height="40" fill="#D9D9D9"/>
</mask>
<g mask="url(#mask0_444_1214)">
<path d="M21.8333 38.3333C19.5 38.3333 17.3122 37.8889 15.27 37C13.2289 36.1111 11.4517 34.91 9.93833 33.3967C8.42389 31.8822 7.22222 30.1039 6.33333 28.0617C5.44444 26.0206 5 23.8333 5 21.5C5 17.4444 6.29167 13.8678 8.875 10.77C11.4583 7.67333 14.75 5.75 18.75 5C18.25 7.75 18.4028 10.4372 19.2083 13.0617C20.0139 15.6872 21.4028 17.9861 23.375 19.9583C25.3472 21.9306 27.6461 23.3194 30.2717 24.125C32.8961 24.9306 35.5833 25.0833 38.3333 24.5833C37.6111 28.5833 35.6944 31.875 32.5833 34.4583C29.4722 37.0417 25.8889 38.3333 21.8333 38.3333ZM21.8333 35C24.2778 35 26.5417 34.3889 28.625 33.1667C30.7083 31.9444 32.3472 30.2639 33.5417 28.125C31.1528 27.9028 28.8889 27.2989 26.75 26.3133C24.6111 25.3267 22.6944 23.9861 21 22.2917C19.3056 20.5972 17.9583 18.6806 16.9583 16.5417C15.9583 14.4028 15.3611 12.1389 15.1667 9.75C13.0278 10.9444 11.3544 12.59 10.1467 14.6867C8.93778 16.7844 8.33333 19.0556 8.33333 21.5C8.33333 25.25 9.64611 28.4372 12.2717 31.0617C14.8961 33.6872 18.0833 35 21.8333 35Z" fill="#B48CFF"/>
</g>
</svg>
