<svg width="276" height="236" viewBox="0 0 276 236" fill="none" xmlns="http://www.w3.org/2000/svg">
<g clip-path="url(#clip0_92_2642)">
<path d="M273.964 166.198H98.7513C98.2114 166.197 97.6938 165.983 97.312 165.603C96.9303 165.222 96.7155 164.707 96.7148 164.169V2.02927C96.7155 1.49129 96.9303 0.975547 97.312 0.595137C97.6938 0.214727 98.2114 0.000703275 98.7513 0H273.964C274.503 0.000703275 275.021 0.214727 275.403 0.595137C275.785 0.975547 275.999 1.49129 276 2.02927V164.168C275.999 164.706 275.785 165.222 275.403 165.602C275.021 165.983 274.503 166.197 273.964 166.197V166.198Z" fill="#53525C"/>
<path d="M273.964 166.198H98.7513C98.2114 166.197 97.6938 165.983 97.312 165.603C96.9303 165.222 96.7155 164.707 96.7148 164.169V2.02927C96.7155 1.49129 96.9303 0.975547 97.312 0.595137C97.6938 0.214727 98.2114 0.000703275 98.7513 0H273.964C274.503 0.000703275 275.021 0.214727 275.403 0.595137C275.785 0.975547 275.999 1.49129 276 2.02927V164.168C275.999 164.706 275.785 165.222 275.403 165.602C275.021 165.983 274.503 166.197 273.964 166.197V166.198ZM98.7513 0.810111C98.4277 0.810811 98.1176 0.939205 97.8888 1.16719C97.66 1.39518 97.5312 1.70419 97.5304 2.02661V164.168C97.5311 164.491 97.66 164.8 97.8888 165.028C98.1176 165.256 98.4277 165.384 98.7513 165.385H273.964C274.287 165.384 274.597 165.256 274.826 165.028C275.055 164.8 275.184 164.491 275.184 164.168V2.02927C275.184 1.70685 275.055 1.39784 274.826 1.16985C274.597 0.941868 274.287 0.813474 273.964 0.812774L98.7513 0.810111Z" fill="#CACACA"/>
<path d="M181.542 42.1324C181.176 42.1331 180.825 42.2785 180.566 42.5368C180.307 42.7951 180.162 43.1451 180.162 43.5101C180.162 43.8751 180.307 44.2252 180.566 44.4835C180.825 44.7418 181.176 44.8872 181.542 44.8878H257.407C257.773 44.8872 258.124 44.7418 258.383 44.4835C258.642 44.2252 258.787 43.8751 258.787 43.5101C258.787 43.1451 258.642 42.7951 258.383 42.5368C258.124 42.2785 257.773 42.1331 257.407 42.1324H181.542Z" fill="#E4E4E4"/>
<path d="M181.542 50.3993C181.176 50.4002 180.825 50.5457 180.567 50.804C180.308 51.0623 180.163 51.4122 180.163 51.777C180.163 52.1418 180.308 52.4917 180.567 52.75C180.825 53.0082 181.176 53.1538 181.542 53.1547H220.273C220.639 53.1538 220.989 53.0082 221.248 52.75C221.507 52.4917 221.652 52.1418 221.652 51.777C221.652 51.4122 221.507 51.0623 221.248 50.804C220.989 50.5457 220.639 50.4002 220.273 50.3993H181.542Z" fill="#B48CFF"/>
<path d="M115.234 94.8556C114.868 94.8565 114.517 95.002 114.259 95.2603C114 95.5185 113.855 95.8685 113.855 96.2333C113.855 96.5981 114 96.948 114.259 97.2063C114.517 97.4645 114.868 97.6101 115.234 97.611H257.48C257.847 97.6101 258.197 97.4645 258.456 97.2063C258.714 96.948 258.86 96.5981 258.86 96.2333C258.86 95.8685 258.714 95.5185 258.456 95.2603C258.197 95.002 257.847 94.8565 257.48 94.8556H115.234Z" fill="#E4E4E4"/>
<path d="M115.234 103.122C114.868 103.123 114.517 103.269 114.259 103.527C114 103.785 113.855 104.135 113.855 104.5C113.855 104.865 114 105.215 114.259 105.473C114.517 105.731 114.868 105.877 115.234 105.878H220.346C220.712 105.877 221.063 105.731 221.322 105.473C221.58 105.215 221.726 104.865 221.726 104.5C221.726 104.135 221.58 103.785 221.322 103.527C221.063 103.269 220.712 103.123 220.346 103.122H115.234Z" fill="#E4E4E4"/>
<path d="M115.234 111.202C114.868 111.203 114.517 111.349 114.259 111.607C114 111.865 113.855 112.215 113.855 112.58C113.855 112.945 114 113.295 114.259 113.553C114.517 113.811 114.868 113.957 115.234 113.958H257.48C257.847 113.957 258.197 113.811 258.456 113.553C258.714 113.295 258.86 112.945 258.86 112.58C258.86 112.215 258.714 111.865 258.456 111.607C258.197 111.349 257.847 111.203 257.48 111.202H115.234Z" fill="#B48CFF"/>
<path d="M115.234 119.469C114.868 119.47 114.517 119.616 114.259 119.874C114 120.132 113.855 120.482 113.855 120.847C113.855 121.212 114 121.562 114.259 121.82C114.517 122.078 114.868 122.224 115.234 122.224H220.346C220.712 122.224 221.063 122.078 221.322 121.82C221.58 121.562 221.726 121.212 221.726 120.847C221.726 120.482 221.58 120.132 221.322 119.874C221.063 119.616 220.712 119.47 220.346 119.469H115.234Z" fill="#B48CFF"/>
<path d="M115.234 127.764C114.868 127.765 114.517 127.911 114.259 128.169C114 128.427 113.855 128.777 113.855 129.142C113.855 129.507 114 129.857 114.259 130.115C114.517 130.373 114.868 130.519 115.234 130.52H257.48C257.847 130.519 258.197 130.373 258.456 130.115C258.714 129.857 258.86 129.507 258.86 129.142C258.86 128.777 258.714 128.427 258.456 128.169C258.197 127.911 257.847 127.765 257.48 127.764H115.234Z" fill="#E4E4E4"/>
<path d="M115.234 136.031C114.868 136.032 114.517 136.177 114.259 136.436C114 136.694 113.855 137.044 113.855 137.409C113.855 137.773 114 138.123 114.259 138.382C114.517 138.64 114.868 138.785 115.234 138.786H220.346C220.712 138.785 221.063 138.64 221.322 138.382C221.58 138.123 221.726 137.773 221.726 137.409C221.726 137.044 221.58 136.694 221.322 136.436C221.063 136.177 220.712 136.032 220.346 136.031H115.234Z" fill="#B48CFF"/>
<path d="M137.765 67.437C133.836 67.437 129.995 66.2762 126.729 64.1013C123.462 61.9264 120.916 58.835 119.413 55.2183C117.909 51.6015 117.516 47.6217 118.282 43.7821C119.049 39.9425 120.941 36.4156 123.719 33.6474C126.497 30.8792 130.036 28.9941 133.889 28.2303C137.742 27.4666 141.736 27.8585 145.366 29.3567C148.996 30.8548 152.098 33.3918 154.281 36.6468C156.463 39.9018 157.628 43.7287 157.628 47.6435C157.622 52.8912 155.528 57.9223 151.804 61.633C148.08 65.3437 143.031 67.431 137.765 67.437Z" fill="#B48CFF"/>
<path d="M77.4676 142.278C77.4333 141.555 77.2404 140.849 76.9025 140.209C76.5647 139.569 76.0901 139.01 75.5121 138.572C74.9342 138.135 74.267 137.829 73.5576 137.676C72.8481 137.523 72.1137 137.527 71.406 137.688L64.8402 128.468L58.2441 131.077L67.6997 143.968C68.0492 145.135 68.8162 146.133 69.8552 146.774C70.8942 147.415 72.1331 147.654 73.3371 147.446C74.5411 147.238 75.6266 146.596 76.3879 145.644C77.1492 144.691 77.5334 143.493 77.4676 142.278H77.4676Z" fill="#A0616A"/>
<path d="M64.6712 141.594L44.8044 115.912L52.2483 92.5996C52.7938 86.7386 56.4744 85.102 56.631 85.0351L56.8699 84.933L63.3475 102.146L58.5914 114.784L70.2651 134.348L64.6712 141.594Z" fill="#75916C"/>
<path d="M133.666 62.4246C132.945 62.5146 132.254 62.7608 131.639 63.146C131.025 63.5311 130.503 64.0458 130.11 64.6538C129.717 65.2618 129.462 65.9483 129.364 66.6649C129.266 67.3816 129.327 68.1109 129.542 68.8016L120.824 76.0375L123.945 82.3888L136.112 71.9982C137.252 71.5607 138.192 70.7216 138.753 69.6398C139.314 68.558 139.458 67.3087 139.156 66.1286C138.855 64.9486 138.129 63.9197 137.117 63.237C136.105 62.5544 134.877 62.2653 133.666 62.4246Z" fill="#BF949A"/>
<path d="M133.971 75.1904L109.811 96.9135L85.9106 91.3205C80.0042 91.2317 78.0821 87.7016 78.0031 87.5512L77.8824 87.3217L94.604 79.5555L107.617 83.3034L126.289 70.1932L133.971 75.1904Z" fill="#75916C"/>
<path d="M92.1223 229.62L98.6137 229.619L101.702 204.67L92.1211 204.67L92.1223 229.62Z" fill="#BF949A"/>
<path d="M111.133 235.625L90.7315 235.626L90.7311 227.772L105.409 227.771C106.927 227.771 108.383 228.372 109.456 229.441C110.53 230.511 111.133 231.961 111.133 233.474L111.133 235.625L111.133 235.625Z" fill="#ACACAC"/>
<path d="M66.1775 229.62L72.6689 229.619L75.7571 204.67L66.1767 204.67L66.1775 229.62Z" fill="#BF949A"/>
<path d="M85.1882 235.625L64.7868 235.626L64.7865 227.772L79.4642 227.771C80.2158 227.771 80.9601 227.918 81.6545 228.205C82.349 228.492 82.98 228.912 83.5115 229.441C84.043 229.971 84.4646 230.6 84.7523 231.291C85.04 231.983 85.188 232.725 85.1881 233.474L85.1882 235.625Z" fill="#ACACAC"/>
<path d="M63.8688 138.551L64.3982 175.484L64.9281 224.024L76.5763 222.969L82.4009 155.962L89.8137 222.969H101.839L103.051 155.435L98.8148 140.662L63.8688 138.551Z" fill="#9F5858"/>
<path d="M86.6681 143.511C73.9937 143.512 62.3271 137.795 62.1696 137.717L62.0387 137.652L60.9751 112.217C60.6667 111.318 54.5933 93.582 53.5647 87.9447C52.5226 82.2334 67.6268 77.2209 69.461 76.6348L69.8772 72.0402L86.8034 70.2228L88.9487 76.1017L95.0211 78.3706C95.7095 78.628 96.2793 79.1281 96.6224 79.7762C96.9655 80.4242 97.0581 81.1751 96.8827 81.8867L93.5077 95.5629L101.75 140.81L99.9759 140.887C95.7223 142.801 91.1314 143.51 86.6681 143.511Z" fill="#75916C"/>
<path d="M84.8484 65.8246C90.7542 62.6076 92.9247 55.229 89.6963 49.344C86.4678 43.4591 79.0631 41.2963 73.1572 44.5133C67.2514 47.7304 65.081 55.1089 68.3094 60.9939C71.5378 66.8788 78.9426 69.0416 84.8484 65.8246Z" fill="#BF949A"/>
<path d="M69.1323 66.9252C71.4548 69.3905 75.7681 68.0671 76.0707 64.6992C76.0944 64.4377 76.0927 64.1746 76.0656 63.9134C75.9093 62.4216 75.0444 61.0672 75.2516 59.492C75.2985 59.1 75.445 58.7264 75.6774 58.4066C77.5282 55.937 81.8727 59.5112 83.6194 57.2756C84.6904 55.9047 83.4314 53.7464 84.2533 52.2143C85.3381 50.1921 88.5511 51.1896 90.566 50.0822C92.8079 48.85 92.6738 45.4226 91.1981 43.3378C89.3983 40.7953 86.2429 39.4387 83.1267 39.2432C80.0106 39.0477 76.9159 39.8871 74.0067 41.0168C70.7012 42.3004 67.4234 44.0744 65.3893 46.9706C62.9155 50.4927 62.6775 55.2279 63.9146 59.3463C64.6672 61.8516 67.2357 64.9121 69.1323 66.9252Z" fill="#33323D"/>
<path d="M136.618 55.1195C136.259 55.1199 135.914 54.9848 135.652 54.7415L129.102 48.6793C128.827 48.4241 128.665 48.0703 128.651 47.6959C128.637 47.3214 128.773 46.9568 129.029 46.6823C129.285 46.4077 129.64 46.2456 130.016 46.2316C130.392 46.2176 130.758 46.3528 131.033 46.6075L136.581 51.7425L147.558 40.8051C147.689 40.673 147.846 40.5681 148.018 40.4964C148.191 40.4246 148.375 40.3876 148.562 40.3872C148.749 40.3869 148.934 40.4233 149.107 40.4943C149.279 40.5654 149.436 40.6698 149.568 40.8014C149.7 40.933 149.805 41.0893 149.876 41.2614C149.948 41.4334 149.984 41.6178 149.984 41.8039C149.983 41.99 149.946 42.1743 149.874 42.346C149.802 42.5178 149.697 42.6736 149.564 42.8047L137.621 54.7054C137.489 54.8369 137.333 54.9411 137.161 55.0122C136.989 55.0832 136.804 55.1197 136.618 55.1195Z" fill="white"/>
</g>
<defs>
<clipPath id="clip0_92_2642">
<rect width="276" height="236" fill="white"/>
</clipPath>
</defs>
</svg>
