<svg width="40" height="40" viewBox="0 0 40 40" fill="none" xmlns="http://www.w3.org/2000/svg">
<mask id="mask0_444_1217" style="mask-type:alpha" maskUnits="userSpaceOnUse" x="0" y="0" width="40" height="40">
<rect width="40" height="40" fill="#D9D9D9"/>
</mask>
<g mask="url(#mask0_444_1217)">
<path d="M21.8333 38.3333C19.5 38.3333 17.3122 37.8889 15.27 37C13.2289 36.1111 11.4517 34.91 9.93833 33.3967C8.42389 31.8822 7.22222 30.1039 6.33333 28.0617C5.44444 26.0206 5 23.8333 5 21.5C5 17.4444 6.29167 13.8678 8.875 10.77C11.4583 7.67333 14.75 5.75 18.75 5C18.25 7.75 18.4028 10.4372 19.2083 13.0617C20.0139 15.6872 21.4028 17.9861 23.375 19.9583C25.3472 21.9306 27.6461 23.3194 30.2717 24.125C32.8961 24.9306 35.5833 25.0833 38.3333 24.5833C37.6111 28.5833 35.6944 31.875 32.5833 34.4583C29.4722 37.0417 25.8889 38.3333 21.8333 38.3333ZM21.8333 35C24.2778 35 26.5417 34.3889 28.625 33.1667C30.7083 31.9444 32.3472 30.2639 33.5417 28.125C31.1528 27.9028 28.8889 27.2989 26.75 26.3133C24.6111 25.3267 22.6944 23.9861 21 22.2917C19.3056 20.5972 17.9583 18.6806 16.9583 16.5417C15.9583 14.4028 15.3611 12.1389 15.1667 9.75C13.0278 10.9444 11.3544 12.59 10.1467 14.6867C8.93778 16.7844 8.33333 19.0556 8.33333 21.5C8.33333 25.25 9.64611 28.4372 12.2717 31.0617C14.8961 33.6872 18.0833 35 21.8333 35Z" fill="#B48CFF"/>
</g>
</svg>
