<svg width="50" height="50" viewBox="0 0 50 50" fill="none" xmlns="http://www.w3.org/2000/svg">
<rect width="49.3333" height="49.3333" rx="12" fill="#26292F"/>
<path d="M24.8333 41.3333C22.5 41.3333 20.3122 40.8889 18.27 40C16.2289 39.1111 14.4517 37.91 12.9383 36.3967C11.4239 34.8822 10.2222 33.1039 9.33333 31.0617C8.44444 29.0206 8 26.8333 8 24.5C8 20.4444 9.29167 16.8678 11.875 13.77C14.4583 10.6733 17.75 8.75 21.75 8C21.25 10.75 21.4028 13.4372 22.2083 16.0617C23.0139 18.6872 24.4028 20.9861 26.375 22.9583C28.3472 24.9306 30.6461 26.3194 33.2717 27.125C35.8961 27.9306 38.5833 28.0833 41.3333 27.5833C40.6111 31.5833 38.6944 34.875 35.5833 37.4583C32.4722 40.0417 28.8889 41.3333 24.8333 41.3333ZM24.8333 38C27.2778 38 29.5417 37.3889 31.625 36.1667C33.7083 34.9444 35.3472 33.2639 36.5417 31.125C34.1528 30.9028 31.8889 30.2989 29.75 29.3133C27.6111 28.3267 25.6944 26.9861 24 25.2917C22.3056 23.5972 20.9583 21.6806 19.9583 19.5417C18.9583 17.4028 18.3611 15.1389 18.1667 12.75C16.0278 13.9444 14.3544 15.59 13.1467 17.6867C11.9378 19.7844 11.3333 22.0556 11.3333 24.5C11.3333 28.25 12.6461 31.4372 15.2717 34.0617C17.8961 36.6872 21.0833 38 24.8333 38Z" fill="#B48CFF"/>
</svg>
